<svg width="445" height="81" viewBox="0 0 445 81" fill="none" xmlns="http://www.w3.org/2000/svg">
<circle cx="37" cy="44" r="37" fill="#72708E"/>
<mask id="mask0_3_149" style="mask-type:alpha" maskUnits="userSpaceOnUse" x="2" y="9" width="70" height="70">
<circle cx="37" cy="44" r="35" fill="#3F3D55"/>
</mask>
<g mask="url(#mask0_3_149)">
<ellipse cx="37.1697" cy="44" rx="34.8723" ry="35" fill="#3F3D55"/>
<path d="M32.0383 40.5709C3.06361 14.5439 54.6708 3.64154 58.8889 30.869C54.0587 20.9405 41.1753 17.6734 33.0771 25.737C21.4922 37.2724 55.8345 40.9463 50.7261 60.6637C45.1727 82.0985 20.2946 67.4873 13.1812 59.1536C30.6087 71.2933 52.6656 59.0996 32.0383 40.5709Z" fill="#EB7086"/>
<ellipse cx="14.6415" cy="22.6283" rx="0.617208" ry="0.619467" fill="#F5F5F5"/>
<ellipse rx="0.674005" ry="0.67167" transform="matrix(0.161244 0.986915 -0.986725 0.162398 53.5679 66.4557)" fill="#F5F5F5"/>
<ellipse cx="20.0421" cy="19.9956" rx="1.08012" ry="1.08407" fill="#F5F5F5"/>
<ellipse rx="1.37757" ry="1.3728" transform="matrix(0.161244 0.986915 -0.986725 0.162398 58.7095 65.0957)" fill="#F5F5F5"/>
<ellipse cx="23.591" cy="27.5841" rx="0.617208" ry="0.619468" fill="#F5F5F5"/>
<ellipse rx="0.619414" ry="0.617274" transform="matrix(0.161245 0.986914 -0.986726 0.162396 55.9832 69.4903)" fill="#F5F5F5"/>
<path d="M26.0599 28.3584C24.2083 21.3894 33.0035 19.531 37.6326 18.9115C31.6148 20.615 29.3002 20.9248 27.9115 27.1195C26.5228 33.3142 38.0955 40.4381 44.5762 47.2522C51.0569 54.0664 46.1192 61.1903 40.2557 64.5974C48.5881 59.177 46.5821 53.6018 41.4901 47.8717C38.5979 44.617 27.9115 35.3274 26.0599 28.3584Z" fill="#FEF4DA"/>
<path d="M79.9182 34.3982C60.8225 48.2648 54.987 52.1888 56.8966 54.1338C58.459 55.7252 62.1703 50.4866 79.9182 34.3982Z" fill="#6A62F8"/>
<path d="M74.2828 33.469C64.8465 40.3213 61.9629 42.2604 62.9065 43.2215C63.6786 44.0079 65.5126 41.4192 74.2828 33.469Z" fill="#9B62F8"/>
<ellipse cx="16.5247" cy="47.0974" rx="8.94954" ry="8.9823" fill="#685A7E"/>
<ellipse cx="11.7413" cy="46.0133" rx="2.00593" ry="2.01328" fill="#8C77A2"/>
<ellipse cx="14.0559" cy="53.292" rx="0.925816" ry="0.929199" fill="#8C77A2"/>
<ellipse cx="23.0055" cy="48.3363" rx="0.617208" ry="0.619467" fill="#8C77A2"/>
</g>
<path d="M111.669 58.5812C110.12 58.5812 108.628 58.3874 107.194 58C105.761 57.5738 104.444 56.9926 103.243 56.2565C102.041 55.4816 100.995 54.5517 100.104 53.4669L104.172 49.3987C105.141 50.5223 106.245 51.3747 107.485 51.9559C108.764 52.4983 110.197 52.7695 111.786 52.7695C113.219 52.7695 114.304 52.5564 115.04 52.1302C115.776 51.704 116.144 51.0841 116.144 50.2705C116.144 49.4181 115.796 48.7595 115.098 48.2945C114.401 47.8296 113.49 47.4422 112.367 47.1322C111.282 46.7835 110.12 46.4348 108.88 46.0861C107.679 45.7374 106.516 45.2725 105.393 44.6913C104.308 44.0714 103.417 43.2384 102.719 42.1923C102.022 41.1462 101.673 39.7901 101.673 38.1241C101.673 36.3419 102.08 34.8115 102.894 33.5329C103.746 32.2543 104.928 31.2664 106.439 30.569C107.989 29.8716 109.829 29.5229 111.96 29.5229C114.207 29.5229 116.183 29.9297 117.888 30.7433C119.631 31.5182 121.084 32.6999 122.247 34.2884L118.178 38.3566C117.365 37.3492 116.435 36.5937 115.389 36.09C114.343 35.5864 113.142 35.3345 111.786 35.3345C110.507 35.3345 109.519 35.5282 108.822 35.9157C108.124 36.3031 107.776 36.8649 107.776 37.6011C107.776 38.376 108.124 38.9765 108.822 39.4027C109.519 39.8289 110.41 40.1969 111.495 40.5069C112.619 40.8169 113.781 41.1656 114.982 41.553C116.222 41.9017 117.384 42.4054 118.469 43.064C119.593 43.6839 120.503 44.5363 121.201 45.6212C121.898 46.6673 122.247 48.0427 122.247 49.7474C122.247 52.4596 121.297 54.6099 119.399 56.1984C117.5 57.7869 114.924 58.5812 111.669 58.5812ZM142.453 58.5812C140.322 58.5812 138.424 58.1356 136.758 57.2445C135.092 56.3146 133.774 55.0554 132.806 53.4669C131.876 51.8784 131.411 50.0768 131.411 48.0621V40.042C131.411 38.0273 131.895 36.2256 132.864 34.6371C133.832 33.0486 135.15 31.8088 136.816 30.9177C138.482 29.9878 140.361 29.5229 142.453 29.5229C144.971 29.5229 147.238 30.1815 149.253 31.4988C151.306 32.7774 152.914 34.5209 154.076 36.7293C155.277 38.899 155.878 41.3593 155.878 44.1101C155.878 46.8222 155.277 49.2825 154.076 51.4909C152.914 53.6606 151.306 55.3848 149.253 56.6633C147.238 57.9419 144.971 58.5812 142.453 58.5812ZM141.407 52.537C142.957 52.537 144.313 52.1883 145.475 51.4909C146.676 50.7548 147.606 49.7474 148.265 48.4689C148.962 47.1903 149.311 45.718 149.311 44.052C149.311 42.386 148.962 40.9137 148.265 39.6352C147.606 38.3566 146.676 37.3686 145.475 36.6712C144.313 35.9351 142.957 35.567 141.407 35.567C139.857 35.567 138.482 35.9351 137.281 36.6712C136.08 37.3686 135.15 38.3566 134.491 39.6352C133.832 40.9137 133.503 42.386 133.503 44.052C133.503 45.718 133.832 47.1903 134.491 48.4689C135.15 49.7474 136.08 50.7548 137.281 51.4909C138.482 52.1883 139.857 52.537 141.407 52.537ZM127.517 69.6233V30.104H133.91V37.6011L132.806 44.4007L133.91 51.1422V69.6233H127.517ZM172.911 58.5812C170.392 58.5812 168.106 57.9419 166.053 56.6633C164.038 55.3848 162.43 53.6606 161.229 51.4909C160.067 49.2825 159.486 46.8222 159.486 44.1101C159.486 41.3593 160.067 38.899 161.229 36.7293C162.43 34.5209 164.038 32.7774 166.053 31.4988C168.106 30.1815 170.392 29.5229 172.911 29.5229C175.042 29.5229 176.921 29.9878 178.548 30.9177C180.214 31.8088 181.531 33.0486 182.5 34.6371C183.469 36.2256 183.953 38.0273 183.953 40.042V48.0621C183.953 50.0768 183.469 51.8784 182.5 53.4669C181.57 55.0554 180.272 56.3146 178.606 57.2445C176.94 58.1356 175.042 58.5812 172.911 58.5812ZM173.957 52.537C176.32 52.537 178.219 51.7428 179.652 50.1543C181.125 48.5657 181.861 46.5317 181.861 44.052C181.861 42.386 181.531 40.9137 180.873 39.6352C180.214 38.3566 179.284 37.3686 178.083 36.6712C176.921 35.9351 175.545 35.567 173.957 35.567C172.407 35.567 171.032 35.9351 169.831 36.6712C168.668 37.3686 167.738 38.3566 167.041 39.6352C166.382 40.9137 166.053 42.386 166.053 44.052C166.053 45.718 166.382 47.1903 167.041 48.4689C167.738 49.7474 168.668 50.7548 169.831 51.4909C171.032 52.1883 172.407 52.537 173.957 52.537ZM181.454 58V50.503L182.558 43.7033L181.454 36.9618V30.104H187.847V58H181.454ZM207.785 58.5812C205.034 58.5812 202.535 57.9419 200.288 56.6633C198.08 55.3848 196.336 53.6413 195.058 51.4328C193.779 49.2244 193.14 46.7641 193.14 44.052C193.14 41.3012 193.779 38.8409 195.058 36.6712C196.336 34.4628 198.08 32.7193 200.288 31.4407C202.535 30.1621 205.034 29.5229 207.785 29.5229C209.955 29.5229 211.97 29.9491 213.829 30.8014C215.728 31.6151 217.336 32.7968 218.653 34.3465L214.469 38.5891C213.655 37.6204 212.667 36.9037 211.505 36.4387C210.381 35.9351 209.141 35.6832 207.785 35.6832C206.197 35.6832 204.782 36.0513 203.543 36.7874C202.342 37.4848 201.392 38.4535 200.695 39.6933C200.036 40.9331 199.707 42.386 199.707 44.052C199.707 45.6793 200.036 47.1322 200.695 48.4108C201.392 49.6506 202.342 50.6386 203.543 51.3747C204.782 52.0721 206.197 52.4208 207.785 52.4208C209.141 52.4208 210.381 52.1883 211.505 51.7234C212.667 51.2197 213.655 50.4836 214.469 49.515L218.653 53.7575C217.336 55.3073 215.728 56.5083 213.829 57.3607C211.97 58.1743 209.955 58.5812 207.785 58.5812ZM235.654 58.5812C232.865 58.5812 230.346 57.9613 228.099 56.7214C225.891 55.4429 224.128 53.6994 222.811 51.4909C221.532 49.2825 220.893 46.8029 220.893 44.052C220.893 41.3012 221.532 38.8409 222.811 36.6712C224.089 34.4628 225.813 32.7193 227.983 31.4407C230.191 30.1621 232.632 29.5229 235.306 29.5229C237.902 29.5229 240.187 30.1234 242.163 31.3245C244.178 32.5256 245.747 34.1722 246.871 36.2644C248.033 38.3566 248.614 40.7394 248.614 43.4127C248.614 43.8777 248.576 44.362 248.498 44.8656C248.459 45.3306 248.382 45.8536 248.266 46.4348H225.368V41.2043H244.953L242.57 43.2965C242.493 41.5917 242.163 40.1582 241.582 38.9959C241.001 37.8335 240.168 36.9424 239.083 36.3225C238.037 35.7026 236.739 35.3926 235.189 35.3926C233.562 35.3926 232.148 35.7413 230.947 36.4387C229.746 37.1361 228.816 38.1241 228.157 39.4027C227.499 40.6425 227.169 42.1342 227.169 43.8777C227.169 45.6212 227.518 47.1516 228.215 48.4689C228.913 49.7862 229.901 50.8129 231.179 51.5491C232.458 52.2465 233.93 52.5952 235.596 52.5952C237.03 52.5952 238.347 52.3433 239.548 51.8396C240.788 51.336 241.834 50.5998 242.686 49.6312L246.755 53.7575C245.399 55.346 243.752 56.5471 241.815 57.3607C239.878 58.1743 237.824 58.5812 235.654 58.5812ZM257.244 58V18.4807H263.637V58H257.244ZM250.56 35.9157V30.104H270.32V35.9157H250.56ZM285.852 58.5812C283.334 58.5812 281.048 57.9419 278.994 56.6633C276.98 55.3848 275.372 53.6606 274.171 51.4909C273.008 49.2825 272.427 46.8222 272.427 44.1101C272.427 41.3593 273.008 38.899 274.171 36.7293C275.372 34.5209 276.98 32.7774 278.994 31.4988C281.048 30.1815 283.334 29.5229 285.852 29.5229C287.983 29.5229 289.862 29.9878 291.489 30.9177C293.155 31.8088 294.473 33.0486 295.441 34.6371C296.41 36.2256 296.894 38.0273 296.894 40.042V48.0621C296.894 50.0768 296.41 51.8784 295.441 53.4669C294.512 55.0554 293.214 56.3146 291.548 57.2445C289.882 58.1356 287.983 58.5812 285.852 58.5812ZM286.898 52.537C289.262 52.537 291.16 51.7428 292.594 50.1543C294.066 48.5657 294.802 46.5317 294.802 44.052C294.802 42.386 294.473 40.9137 293.814 39.6352C293.155 38.3566 292.226 37.3686 291.025 36.6712C289.862 35.9351 288.487 35.567 286.898 35.567C285.348 35.567 283.973 35.9351 282.772 36.6712C281.61 37.3686 280.68 38.3566 279.982 39.6352C279.324 40.9137 278.994 42.386 278.994 44.052C278.994 45.718 279.324 47.1903 279.982 48.4689C280.68 49.7474 281.61 50.7548 282.772 51.4909C283.973 52.1883 285.348 52.537 286.898 52.537ZM294.395 58V50.503L295.499 43.7033L294.395 36.9618V30.104H300.788V58H294.395ZM319.506 70.2045C316.562 70.2045 313.985 69.6621 311.777 68.5772C309.568 67.5311 307.786 66.0395 306.43 64.1022L310.614 59.9178C311.738 61.3126 313.016 62.3587 314.45 63.0561C315.884 63.7535 317.608 64.1022 319.622 64.1022C322.141 64.1022 324.136 63.4436 325.608 62.1263C327.081 60.8477 327.817 59.0848 327.817 56.8377V49.9799L328.921 43.8195L327.817 37.6011V30.104H334.21V56.8377C334.21 59.511 333.59 61.8357 332.35 63.8117C331.11 65.8264 329.386 67.3955 327.178 68.5191C324.969 69.6427 322.412 70.2045 319.506 70.2045ZM319.216 57.4188C316.736 57.4188 314.489 56.8183 312.474 55.6172C310.498 54.3774 308.929 52.692 307.767 50.5611C306.643 48.4301 306.081 46.0474 306.081 43.4127C306.081 40.7781 306.643 38.4147 307.767 36.3225C308.929 34.2303 310.498 32.5837 312.474 31.3826C314.489 30.1428 316.736 29.5229 319.216 29.5229C321.424 29.5229 323.361 29.9684 325.027 30.8595C326.693 31.7507 327.991 32.9905 328.921 34.579C329.851 36.1288 330.316 37.9498 330.316 40.042V46.8997C330.316 48.9532 329.832 50.7742 328.863 52.3627C327.933 53.9512 326.635 55.191 324.969 56.0822C323.303 56.9733 321.385 57.4188 319.216 57.4188ZM320.494 51.3747C322.044 51.3747 323.4 51.0454 324.562 50.3867C325.725 49.7281 326.616 48.8176 327.236 47.6552C327.894 46.4542 328.224 45.0594 328.224 43.4709C328.224 41.8823 327.894 40.5069 327.236 39.3446C326.616 38.1435 325.725 37.2136 324.562 36.555C323.4 35.8963 322.044 35.567 320.494 35.567C318.944 35.567 317.569 35.8963 316.368 36.555C315.206 37.2136 314.295 38.1435 313.636 39.3446C312.978 40.5069 312.648 41.8823 312.648 43.4709C312.648 45.0206 312.978 46.3961 313.636 47.5971C314.295 48.7982 315.206 49.7281 316.368 50.3867C317.569 51.0454 318.944 51.3747 320.494 51.3747ZM341.311 58V30.104H347.704V58H341.311ZM347.704 42.4829L345.496 41.3787C345.496 37.8529 346.271 35.0052 347.82 32.8355C349.409 30.6271 351.792 29.5229 354.969 29.5229C356.363 29.5229 357.623 29.7747 358.746 30.2784C359.87 30.7821 360.916 31.5957 361.885 32.7193L357.7 37.0199C357.196 36.4775 356.635 36.09 356.015 35.8576C355.395 35.6251 354.678 35.5089 353.864 35.5089C352.082 35.5089 350.61 36.0707 349.448 37.1943C348.285 38.3178 347.704 40.0807 347.704 42.4829ZM375.808 58.5812C373.29 58.5812 371.004 57.9419 368.95 56.6633C366.936 55.3848 365.328 53.6606 364.127 51.4909C362.964 49.2825 362.383 46.8222 362.383 44.1101C362.383 41.3593 362.964 38.899 364.127 36.7293C365.328 34.5209 366.936 32.7774 368.95 31.4988C371.004 30.1815 373.29 29.5229 375.808 29.5229C377.939 29.5229 379.818 29.9878 381.445 30.9177C383.111 31.8088 384.429 33.0486 385.397 34.6371C386.366 36.2256 386.85 38.0273 386.85 40.042V48.0621C386.85 50.0768 386.366 51.8784 385.397 53.4669C384.467 55.0554 383.169 56.3146 381.503 57.2445C379.837 58.1356 377.939 58.5812 375.808 58.5812ZM376.854 52.537C379.217 52.537 381.116 51.7428 382.549 50.1543C384.022 48.5657 384.758 46.5317 384.758 44.052C384.758 42.386 384.429 40.9137 383.77 39.6352C383.111 38.3566 382.181 37.3686 380.98 36.6712C379.818 35.9351 378.443 35.567 376.854 35.567C375.304 35.567 373.929 35.9351 372.728 36.6712C371.565 37.3686 370.636 38.3566 369.938 39.6352C369.28 40.9137 368.95 42.386 368.95 44.052C368.95 45.718 369.28 47.1903 369.938 48.4689C370.636 49.7474 371.565 50.7548 372.728 51.4909C373.929 52.1883 375.304 52.537 376.854 52.537ZM384.351 58V50.503L385.455 43.7033L384.351 36.9618V30.104H390.744V58H384.351ZM397.839 58V30.104H404.232V58H397.839ZM416.378 58V41.3787C416.378 39.5189 415.797 38.0854 414.634 37.078C413.472 36.0319 412.039 35.5089 410.334 35.5089C409.171 35.5089 408.125 35.7413 407.195 36.2063C406.304 36.6712 405.588 37.3492 405.045 38.2404C404.503 39.0927 404.232 40.1388 404.232 41.3787L401.733 39.9839C401.733 37.8529 402.197 36.0126 403.127 34.4628C404.057 32.913 405.316 31.7119 406.905 30.8595C408.493 29.9684 410.276 29.5229 412.252 29.5229C414.228 29.5229 416.01 29.9491 417.598 30.8014C419.187 31.6538 420.446 32.8549 421.376 34.4047C422.306 35.9544 422.771 37.8142 422.771 39.9839V58H416.378ZM434.917 58V41.3787C434.917 39.5189 434.336 38.0854 433.174 37.078C432.011 36.0319 430.578 35.5089 428.873 35.5089C427.749 35.5089 426.723 35.7413 425.793 36.2063C424.863 36.6712 424.127 37.3492 423.584 38.2404C423.042 39.0927 422.771 40.1388 422.771 41.3787L419.168 39.9839C419.361 37.8529 419.981 36.0126 421.027 34.4628C422.073 32.913 423.41 31.7119 425.037 30.8595C426.703 29.9684 428.524 29.5229 430.5 29.5229C432.515 29.5229 434.336 29.9491 435.963 30.8014C437.59 31.6538 438.888 32.8549 439.857 34.4047C440.826 35.9544 441.31 37.8142 441.31 39.9839V58H434.917Z" fill="white"/>
</svg>
